<?xml version="1.0" encoding="iso-8859-1"?>
<!-- Generator: Adobe Illustrator 19.0.0, SVG Export Plug-In . SVG Version: 6.00 Build 0)  -->
<svg version="1.1" id="Capa_1" xmlns="http://www.w3.org/2000/svg" xmlns:xlink="http://www.w3.org/1999/xlink" x="0px" y="0px"
	 viewBox="0 0 512.001 512.001" style="enable-background:new 0 0 512.001 512.001;" xml:space="preserve">
<path style="fill:#FFB037;" d="M256.001,0L196,256.003L256.001,512c0.004,0.005,11.382-13.225,11.382-13.225
	c20.074-23.368,49.096-36.77,79.627-36.77h28.992c41.355,0,75.001-33.645,75.001-75.001V0H256.001z"/>
<path style="fill:#FFD237;" d="M60.999,0v387.004c0,41.355,33.645,75.001,75.001,75.001h29c30.528,0,59.552,13.402,79.627,36.771
	L256,512.001V0H60.999z"/>
<rect x="226.002" y="75.001" style="fill:#EFF6F9;" width="195.002" height="60.001"/>
<rect x="90.999" y="75.001" style="fill:#FFFFFF;" width="165.002" height="60.001"/>
<polygon style="fill:#00B8FA;" points="481.003,60.001 256.001,60.001 226,75.001 256.001,90.001 481.003,90.001 "/>
<rect x="30.998" y="60.001" style="fill:#5CD4FF;" width="225.002" height="30"/>
<polygon style="fill:#00B8FA;" points="481.003,120.001 256.001,120.001 226,135.001 256.001,150.001 481.003,150.001 "/>
<rect x="30.998" y="120.001" style="fill:#5CD4FF;" width="225.002" height="30"/>
<path style="fill:#014059;" d="M207.878,345.776l-24.906-105.774h-33.945L124.12,345.776h-18.122v30h41.878l7.064-30h22.115
	l7.064,30h41.878v-30H207.878z M162.006,315.776L166,298.814l3.994,16.962H162.006z"/>
<g>
	<path style="fill:#012231;" d="M387.88,345.776l-24.906-105.774h-33.945l-24.905,105.774h-18.122v30h41.878l7.064-30h22.116
		l7.064,30h41.878v-30H387.88z M342.007,315.776l3.994-16.963l3.994,16.963H342.007z"/>
	<polygon style="fill:#012231;" points="346.001,210.002 346.001,180.002 256.001,180.002 246,292.89 256.001,405.777 
		271.005,405.777 271.005,270.003 301.005,270.003 301.005,240.002 271.005,240.002 271.005,210.002 	"/>
</g>
<polygon style="fill:#014059;" points="181.007,180.002 181.007,210.002 241.004,210.002 241.004,405.777 256.001,405.777 
	256.001,180.002 "/>
<g>
</g>
<g>
</g>
<g>
</g>
<g>
</g>
<g>
</g>
<g>
</g>
<g>
</g>
<g>
</g>
<g>
</g>
<g>
</g>
<g>
</g>
<g>
</g>
<g>
</g>
<g>
</g>
<g>
</g>
</svg>
