<?xml version="1.0" encoding="iso-8859-1"?>
<!-- Generator: Adobe Illustrator 19.0.0, SVG Export Plug-In . SVG Version: 6.00 Build 0)  -->
<svg version="1.1" id="Capa_1" xmlns="http://www.w3.org/2000/svg" xmlns:xlink="http://www.w3.org/1999/xlink" x="0px" y="0px"
	 viewBox="0 0 512 512" style="enable-background:new 0 0 512 512;" xml:space="preserve">
<path style="fill:#FFB037;" d="M456.005,65.934c-45.5,0-67.962-14.811-91.743-30.49C339.064,18.83,310.505,0,256.005,0l-60,256
	l60,256l9.69-8.201c12.833-10.86,27.252-19.417,42.858-25.433l82.074-31.632c18.161-7.001,33.675-19.164,44.862-35.174
	c11.458-16.397,17.515-35.671,17.515-55.736V135c0-16.42,5.187-31.999,15-45.054l18.041-24.013L456.005,65.934L456.005,65.934z"/>
<path style="fill:#FFD237;" d="M147.744,35.443c-23.784,15.68-46.249,30.49-91.749,30.49H25.954l18.051,24.013
	c9.813,13.055,15,28.634,15,45.054v220.824c0,20.065,6.057,39.339,17.515,55.736c11.188,16.01,26.701,28.173,44.862,35.174
	l82.074,31.632c15.606,6.016,30.025,14.572,42.858,25.433l9.69,8.201V0C201.505,0,172.943,18.83,147.744,35.443z"/>
<g>
	<path style="fill:#015E82;" d="M423.005,216v-81c0-14.124,2.747-27.81,8.06-40.508c-38.886-4.709-62.274-20.129-83.316-34.002
		c-17.877-11.787-35.011-23.081-61.743-27.963V216H423.005z"/>
	<path style="fill:#015E82;" d="M286.005,455.407c3.854-1.81,7.772-3.496,11.76-5.033l82.285-31.714
		c25.702-10.01,42.955-35.231,42.955-62.836V276h-137V455.407z"/>
</g>
<path style="fill:#4FA811;" d="M286.005,216V32.527c-8.829-1.613-18.703-2.527-30-2.527l-20,216l20,227.248
	c9.415-6.927,19.45-12.885,30-17.841V276h137v-60H286.005z"/>
<path style="fill:#6BBF32;" d="M226.005,32.527V216h-137v60h137v179.407c10.55,4.956,20.585,10.914,30,17.841V30
	C244.708,30,234.834,30.915,226.005,32.527z"/>
<g>
	<path style="fill:#007CAA;" d="M226.005,32.527c-26.734,4.882-43.87,16.176-61.749,27.963
		c-21.043,13.873-44.431,29.293-83.311,34.001c5.313,12.699,8.06,26.385,8.06,40.509v81h137V32.527z"/>
	<path style="fill:#007CAA;" d="M89.005,276v79.824c0,27.616,17.267,52.848,42.987,62.848l0.184,0.071l82.069,31.631
		c3.988,1.537,7.906,3.223,11.76,5.033V276H89.005z"/>
</g>
<rect x="211" y="17.278" style="fill:#FFD237;" width="30" height="454.87"/>
<rect x="271" y="17.279" style="fill:#FFB037;" width="30" height="454.87"/>
<rect x="74" y="201" style="fill:#FFD237;" width="182" height="30"/>
<g>
	<rect x="256" y="201" style="fill:#FFB037;" width="182" height="30"/>
	<rect x="256" y="261" style="fill:#FFB037;" width="182" height="30"/>
</g>
<rect x="74" y="261" style="fill:#FFD237;" width="182" height="30"/>
<polygon style="fill:#EFF6F9;" points="348.005,201 301.005,201 301.005,154 346.005,109 256.005,109 226.005,246 256.005,383 
	346.005,383 301.005,338 301.005,291 348.005,291 393.005,336 393.005,156 "/>
<polygon style="fill:#FFFFFF;" points="166.005,109 211.005,154 211.005,201 164.005,201 119.005,156 119.005,336 164.005,291 
	211.005,291 211.005,338 166.005,383 256.005,383 256.005,109 "/>
<g>
</g>
<g>
</g>
<g>
</g>
<g>
</g>
<g>
</g>
<g>
</g>
<g>
</g>
<g>
</g>
<g>
</g>
<g>
</g>
<g>
</g>
<g>
</g>
<g>
</g>
<g>
</g>
<g>
</g>
</svg>
