<?xml version="1.0" encoding="iso-8859-1"?>
<!-- Generator: Adobe Illustrator 19.0.0, SVG Export Plug-In . SVG Version: 6.00 Build 0)  -->
<svg version="1.1" id="Capa_1" xmlns="http://www.w3.org/2000/svg" xmlns:xlink="http://www.w3.org/1999/xlink" x="0px" y="0px"
	 viewBox="0 0 512 512" style="enable-background:new 0 0 512 512;" xml:space="preserve">
<path style="fill:#014059;" d="M256,0l-60,256l60,256l3.479-0.83C417.773,473.427,451,381.255,451,310.58V0H256z"/>
<path style="fill:#015E82;" d="M61,0v310.58c0,70.676,33.227,162.848,191.521,200.591L256,512V0H61z"/>
<path style="fill:#EFF6F9;" d="M256,30l-60,226l60,225.145c109.489-27.018,165-84.392,165-170.565V30H256z"/>
<path style="fill:#FFFFFF;" d="M91,30v280.58c0,86.173,55.511,143.547,165,170.565V30H91z"/>
<polygon style="fill:#014059;" points="136,58 136,88 196,88 166,58 "/>
<polygon style="fill:#012231;" points="376,58 346,58 316,88 376,88 "/>
<path style="fill:#014059;" d="M256,58l-30,46l30,46h15c41.355,0,75-33.645,75-75V58H256z"/>
<polygon style="fill:#007CAA;" points="166,58 166,130 246,130 226,58 "/>
<polygon style="fill:#015E82;" points="226,58 226,120 136,120 136,150 256,150 256,58 "/>
<g>
	<rect x="256" y="120" style="fill:#014059;" width="120" height="30"/>
	<polygon style="fill:#014059;" points="136,178 136,208 196,208 166,178 	"/>
</g>
<polygon style="fill:#012231;" points="376,178 346,178 316,208 376,208 "/>
<path style="fill:#014059;" d="M256,178l-30,46l30,46h15c41.355,0,75-33.645,75-75v-17H256z"/>
<polygon style="fill:#007CAA;" points="166,178 166,250 246,250 226,178 "/>
<polygon style="fill:#015E82;" points="226,178 226,240 136,240 136,270 256,270 256,178 "/>
<g>
	<rect x="256" y="240" style="fill:#014059;" width="120" height="30"/>
	<polygon style="fill:#014059;" points="136,298 136,328 196,328 166,298 	"/>
</g>
<polygon style="fill:#012231;" points="376,298 346,298 316,328 376,328 "/>
<path style="fill:#014059;" d="M256,298l-30,46l30,46h15c41.355,0,75-33.645,75-75v-17H256z"/>
<polygon style="fill:#007CAA;" points="166,298 166,370 246,370 226,298 "/>
<polygon style="fill:#015E82;" points="226,298 226,360 136,360 136,390 256,390 256,298 "/>
<rect x="256" y="360" style="fill:#014059;" width="120" height="30"/>
<g>
</g>
<g>
</g>
<g>
</g>
<g>
</g>
<g>
</g>
<g>
</g>
<g>
</g>
<g>
</g>
<g>
</g>
<g>
</g>
<g>
</g>
<g>
</g>
<g>
</g>
<g>
</g>
<g>
</g>
</svg>
