<?xml version="1.0" encoding="iso-8859-1"?>
<!-- Generator: Adobe Illustrator 19.0.0, SVG Export Plug-In . SVG Version: 6.00 Build 0)  -->
<svg version="1.1" id="Capa_1" xmlns="http://www.w3.org/2000/svg" xmlns:xlink="http://www.w3.org/1999/xlink" x="0px" y="0px"
	 viewBox="0 0 512 512" style="enable-background:new 0 0 512 512;" xml:space="preserve">
<polygon style="fill:#FF9037;" points="331,444.5 331,67.5 421,0 256,0 226,256 256,512 421,512 "/>
<polygon style="fill:#FFB037;" points="91,0 181,67.5 181,444.5 91,512 256,512 256,0 "/>
<polygon style="fill:#FF0021;" points="301,459.5 301,52.5 331,30 256,30 226,256 256,482 331,482 "/>
<polygon style="fill:#FF4B37;" points="181,30 211,52.5 211,459.5 181,482 256,482 256,30 "/>
<polygon style="fill:#EFF6F9;" points="271,60.5 256,60.5 246,256 256,452 271,452 "/>
<rect x="241" y="60.5" style="fill:#FFFFFF;" width="15" height="391.5"/>
<polygon style="fill:#FFB037;" points="97.5,121 30,31 30,361 97.5,271 256,271 256,121 "/>
<polygon style="fill:#FF9037;" points="414.5,121 256,121 256,271 414.5,271 482,361 482,31 "/>
<polygon style="fill:#FF0021;" points="429.5,151 256,151 256,241 429.5,241 452,271 452,121 "/>
<polygon style="fill:#FF4B37;" points="82.5,151 60,121 60,271 82.5,241 256,241 256,151 "/>
<rect x="256" y="181" style="fill:#EFF6F9;" width="165.5" height="30"/>
<rect x="90" y="181" style="fill:#FFFFFF;" width="166" height="30"/>
<path style="fill:#FF6E37;" d="M367.056,89.7l-1.418,16.3h-3.639c-13.823,0-20.084-4.907-28.749-11.698
	c-10.281-8.058-23.076-18.085-47.254-18.085c-10.591,0-20.945,2.323-29.996,6.648l-40,140.163l40,143.147
	c9.055,5.234,19.377,8.036,29.996,8.036c25.237,0,38.211-13.046,48.636-23.528c8.793-8.841,14.602-14.683,27.364-14.683h13.752
	l21.194-243.7L367.056,89.7z"/>
<path style="fill:#FFB037;" d="M255.999,82.866c-9.052-4.326-19.405-6.649-29.997-6.649c-24.178,0-36.973,10.028-47.254,18.085
	C170.083,101.093,163.822,106,149.999,106h-3.638l-1.418-16.3l-29.887,2.6L136.252,336h13.752c24.277,0,28.938,6.609,35.39,15.757
	c6.683,9.476,15.835,22.454,40.61,22.454c10.619,0,20.941-2.802,29.996-8.036C256,366.175,256,82.865,255.999,82.866z"/>
<path style="fill:#FF0021;" d="M361.999,136c-24.179,0-36.974-10.028-47.255-18.085c-8.665-6.791-14.926-11.698-28.748-11.698
	c-8.043,0-15.648,2.215-21.415,6.238L256,118.44l-40,104.588l40,104.589l10.004,8.954c5.505,4.927,12.604,7.64,19.992,7.64
	c12.763,0,18.571-5.841,27.364-14.683c8.317-8.364,18.257-18.36,34.756-22.059L363.029,136H361.999z"/>
<path style="fill:#FF4B37;" d="M255.999,118.44l-8.582-5.986c-5.767-4.022-13.372-6.238-21.415-6.238
	c-13.822,0-20.083,4.907-28.748,11.698C186.973,125.972,174.178,136,149.999,136h-1.029l14.853,170.774
	c28.998,3.464,39.104,17.79,46.088,27.693c5.415,7.679,6.87,9.743,16.093,9.743c7.388,0,14.487-2.713,19.992-7.64L256,327.617
	C256,327.617,256,118.44,255.999,118.44z"/>
<path style="fill:#FF9037;" d="M317,151h-61l-20,75.874l20,75.874c33.636,0,61-27.364,61-61V151z"/>
<path style="fill:#FFB037;" d="M195.001,151l0.006,90.263c-0.004,0.161-0.007,0.322-0.007,0.484c0,33.636,27.364,61,61,61V151
	H195.001z"/>
<path style="fill:#EFF6F9;" d="M287,181h-31l-10,45.874l10,45.874c17.094,0,31-13.907,31-31V181z"/>
<path style="fill:#FFFFFF;" d="M225.003,181l0.004,60.46c0,0.156-0.002,0.311-0.006,0.466c0.096,17.012,13.965,30.821,30.999,30.821
	V181H225.003z"/>
<g>
</g>
<g>
</g>
<g>
</g>
<g>
</g>
<g>
</g>
<g>
</g>
<g>
</g>
<g>
</g>
<g>
</g>
<g>
</g>
<g>
</g>
<g>
</g>
<g>
</g>
<g>
</g>
<g>
</g>
</svg>
