<?xml version="1.0" encoding="iso-8859-1"?>
<!-- Generator: Adobe Illustrator 19.0.0, SVG Export Plug-In . SVG Version: 6.00 Build 0)  -->
<svg version="1.1" id="Capa_1" xmlns="http://www.w3.org/2000/svg" xmlns:xlink="http://www.w3.org/1999/xlink" x="0px" y="0px"
	 viewBox="0 0 512 512" style="enable-background:new 0 0 512 512;" xml:space="preserve">
<path style="fill:#FF9037;" d="M447.123,90.044c-55.263,0-102.69-30.991-123.773-80.878L319.477,0h-63.476l-60.029,407.711h158.149
	l4.454-6.691c54.44-81.77,90.212-183.499,103.449-294.187l2.008-16.789H447.123z"/>
<path style="fill:#FFB037;" d="M192.524,0l-3.874,9.165c-21.081,49.887-68.508,80.878-123.772,80.878H47.968l2.008,16.789
	C63.213,217.522,98.985,319.25,153.426,401.02l4.454,6.691H256V0H192.524z"/>
<path style="fill:#015E82;" d="M299.911,30.015H256l-30.015,347.682h65.893l16.211-333.163
	C305.13,39.851,302.395,35.011,299.911,30.015z"/>
<path style="fill:#009AD2;" d="M212.089,30.015c-2.483,4.996-5.219,9.837-8.178,14.518l16.211,333.164H256V30.015H212.089z"/>
<path style="fill:#FFFFFF;" d="M135.321,105.051l41.519-10.005l30.015,10.005l3.436,70.617l-24.069,35.309l27.505,35.309
	l3.436,70.617l-17.225,60.792H174.03c-12.352-19.187-23.639-39.508-33.831-60.792l-0.727-35.309l-27.836-35.309
	c-7.667-22.8-14.208-46.386-19.574-70.617L135.321,105.051z"/>
<g>
	<path style="fill:#FF0021;" d="M213.727,246.287h-54.451c-4.688-23.015-9.119-47.255-13.065-70.617h64.08L213.727,246.287z"/>
	<path style="fill:#FF0021;" d="M146.211,175.669H92.065c-4.088-18.464-7.506-37.295-10.207-56.444
		c18.426-1.821,36.215-6.61,52.746-14.174h0.718C138.174,125.711,141.902,150.16,146.211,175.669z"/>
</g>
<path style="fill:#FFFFFF;" d="M134.604,105.051c0.225-0.103,0.45-0.207,0.675-0.311c0.014,0.103,0.029,0.207,0.043,0.311H134.604z"
	/>
<g>
	<path style="fill:#FF0021;" d="M175.922,316.905H140.2c-10.779-22.511-20.321-46.108-28.562-70.617h47.639
		C164.606,272.448,170.266,297.017,175.922,316.905z"/>
	<path style="fill:#FF0021;" d="M175.922,316.905h41.241l2.958,60.792h-20.183l-12.977-28.55
		C183.348,341.008,179.636,329.962,175.922,316.905z"/>
	<path style="fill:#FF0021;" d="M135.278,104.74c7.439-3.445,14.621-7.448,21.486-12.004c19.051-12.641,35.036-29.045,47.145-48.204
		l2.945,60.519h-71.534C135.307,104.948,135.293,104.844,135.278,104.74z"/>
</g>
<path style="fill:#EFF6F9;" d="M376.679,105.051L335.16,95.046l-30.015,10.005l-3.436,70.617l24.069,35.309l-27.505,35.309
	l-3.436,70.617l17.225,60.792h25.908c12.352-19.187,23.639-39.508,33.831-60.792l0.727-35.309l27.836-35.309
	c7.667-22.8,14.208-46.386,19.574-70.617L376.679,105.051z"/>
<g>
	<path style="fill:#D5011D;" d="M298.273,246.287h54.451c4.688-23.015,9.119-47.255,13.065-70.617h-64.08L298.273,246.287z"/>
	<path style="fill:#D5011D;" d="M365.789,175.669h54.146c4.088-18.464,7.506-37.295,10.207-56.444
		c-18.426-1.821-36.215-6.61-52.746-14.174h-0.718C373.827,125.711,370.098,150.16,365.789,175.669z"/>
</g>
<path style="fill:#FFFFFF;" d="M377.397,105.051c-0.225-0.103-0.45-0.207-0.675-0.311c-0.014,0.103-0.029,0.207-0.043,0.311H377.397
	z"/>
<g>
	<path style="fill:#D5011D;" d="M336.078,316.905H371.8c10.779-22.511,20.321-46.108,28.562-70.617h-47.639
		C347.395,272.448,341.735,297.017,336.078,316.905z"/>
	<path style="fill:#D5011D;" d="M336.078,316.905h-41.241l-2.958,60.792h20.183l12.977-28.55
		C328.654,341.008,332.365,329.962,336.078,316.905z"/>
	<path style="fill:#D5011D;" d="M376.722,104.74c-7.439-3.445-14.621-7.448-21.487-12.004
		c-19.051-12.641-35.036-29.045-47.145-48.204l-2.945,60.519h71.534C376.693,104.948,376.708,104.844,376.722,104.74z"/>
</g>
<rect x="21.41" y="190.089" transform="matrix(-0.0486 -0.9988 0.9988 -0.0486 17.1603 426.538)" style="fill:#FFB037;" width="380.629" height="30.014"/>
<rect x="285.264" y="14.782" transform="matrix(-0.9988 -0.0486 0.0486 -0.9988 590.2202 424.544)" style="fill:#FF9037;" width="30.014" height="380.629"/>
<path style="fill:#FFB037;" d="M256,301.897l-52.526,70.034l151.595,70.022c3.869-10.95,5.982-22.73,5.982-35.005
	C361.051,348.93,314.018,301.897,256,301.897z"/>
<path style="fill:#FF9037;" d="M256,371.932h-52.526L256,512c45.743,0,84.65-29.24,99.069-70.046
	C340.645,401.159,301.736,371.932,256,371.932z"/>
<path style="fill:#FFE17A;" d="M256,301.897c-58.018,0-105.051,47.033-105.051,105.051c0,12.275,2.113,24.056,5.982,35.006
	L256,371.932V301.897z"/>
<path style="fill:#FFB037;" d="M156.931,441.955C171.35,482.761,210.257,512,256,512V371.932
	C210.265,371.932,171.356,401.159,156.931,441.955z"/>
<g>
</g>
<g>
</g>
<g>
</g>
<g>
</g>
<g>
</g>
<g>
</g>
<g>
</g>
<g>
</g>
<g>
</g>
<g>
</g>
<g>
</g>
<g>
</g>
<g>
</g>
<g>
</g>
<g>
</g>
</svg>
