<?xml version="1.0" encoding="iso-8859-1"?>
<!-- Generator: Adobe Illustrator 19.0.0, SVG Export Plug-In . SVG Version: 6.00 Build 0)  -->
<svg version="1.1" id="Capa_1" xmlns="http://www.w3.org/2000/svg" xmlns:xlink="http://www.w3.org/1999/xlink" x="0px" y="0px"
	 viewBox="0 0 512 512" style="enable-background:new 0 0 512 512;" xml:space="preserve">
<polygon style="fill:#FF6E37;" points="256,73.863 196,292.932 256,512 439.75,414 439.75,171.863 "/>
<polygon style="fill:#FF9037;" points="72.25,171.863 72.25,414 256,512 256,73.863 "/>
<polygon style="fill:#014059;" points="256,107.863 206,292.932 256,478 409.75,396 409.75,189.863 "/>
<polygon style="fill:#007CAA;" points="102.25,189.863 102.25,396 256,478 256,107.863 "/>
<polygon style="fill:#FF9037;" points="302.111,111.966 348.228,67.013 284.496,57.752 256,0.013 236,111.966 256,145.476 
	312.998,175.44 "/>
<path style="fill:#FFB037;" d="M255.994,0l-28.502,57.752l-63.732,9.261l46.117,44.953L198.99,175.44l57.004-29.968
	C256,145.476,256,0.013,255.994,0z"/>
<g>
	<path style="fill:#EFF6F9;" d="M166,367h-30c0-41.355,33.645-75,75-75v30C186.187,322,166,342.187,166,367z"/>
	<path style="fill:#EFF6F9;" d="M226,382h-30V275c0-26.713,14.367-51.61,37.495-64.973l15.009,25.976
		C234.623,244.023,226,258.966,226,275V382z"/>
</g>
<g>
	<rect x="316" y="215" style="fill:#B7C3C8;" width="30" height="92"/>
	<path style="fill:#B7C3C8;" d="M331,382h-60v-30h60c8.271,0,15-6.729,15-15s-6.729-15-15-15h-60v-30h60c24.813,0,45,20.187,45,45
		S355.813,382,331,382z"/>
</g>
<path style="fill:#FFFFFF;" d="M211,200c-41.355,0-75,33.645-75,75v107h30V275c0-24.813,20.187-45,45-45s45,20.187,45,45h20
	l-20-59.959C243.456,205.603,227.871,200,211,200z"/>
<path style="fill:#EFF6F9;" d="M256,215.041V275h30C286,250.516,274.204,228.738,256,215.041z"/>
<path style="fill:#D1DEE4;" d="M286,437h-30V275c0-41.355,33.645-75,75-75h37.5v30H331c-24.813,0-45,20.187-45,45V437z"/>
<g>
</g>
<g>
</g>
<g>
</g>
<g>
</g>
<g>
</g>
<g>
</g>
<g>
</g>
<g>
</g>
<g>
</g>
<g>
</g>
<g>
</g>
<g>
</g>
<g>
</g>
<g>
</g>
<g>
</g>
</svg>
