<?xml version="1.0" encoding="iso-8859-1"?>
<!-- Generator: Adobe Illustrator 19.0.0, SVG Export Plug-In . SVG Version: 6.00 Build 0)  -->
<svg version="1.1" id="Capa_1" xmlns="http://www.w3.org/2000/svg" xmlns:xlink="http://www.w3.org/1999/xlink" x="0px" y="0px"
	 viewBox="0 0 512 512" style="enable-background:new 0 0 512 512;" xml:space="preserve">
<path style="fill:#FFB037;" d="M391,120c0-23.39-17.775-46.156-40.467-51.828l-94.531-23.633l-30,105.461H391V120z"/>
<path style="fill:#FFD237;" d="M255.998,44.538l-94.532,23.633C138.775,73.844,121,96.61,121,120v30h135.002
	C256.002,150,256.002,44.539,255.998,44.538z"/>
<path style="fill:#007CAA;" d="M343.258,97.276l-87.256-21.814l-30,74.537H361v-30C361,110.428,352.544,99.598,343.258,97.276z"/>
<path style="fill:#009AD2;" d="M255.999,75.462l-87.256,21.814C159.457,99.597,151,110.428,151,120v30h105.002
	C256.002,150,256.002,75.463,255.999,75.462z"/>
<path style="fill:#FFD237;" d="M91,120v54.147c0,144.32,61.708,275.078,157.209,333.122L256,512c0.002-0.001,0.002-392,0.002-392H91
	z"/>
<path style="fill:#FFB037;" d="M256.002,120v391.999l7.789-4.73C359.292,449.225,421,318.467,421,174.147V120H256.002z"/>
<path style="fill:#007CAA;" d="M390.963,180c0.024-1.948,0.037-3.899,0.037-5.853V150H256.002l-20,15l20,15H390.963z"/>
<path style="fill:#009AD2;" d="M256.002,180v-30H121v24.147c0,1.954,0.013,3.905,0.037,5.853H256.002z"/>
<path style="fill:#007CAA;" d="M255.998,0l-39.996,75l39.996,75c41.421,0,75-33.579,75-75S297.419,0,255.998,0z"/>
<path style="fill:#009AD2;" d="M180.998,75c0,41.421,33.579,75,75,75V0C214.577,0,180.998,33.579,180.998,75z"/>
<path style="fill:#FFB037;" d="M255.998,30l-29.996,45l29.996,45c24.853,0,45-20.147,45-45S280.851,30,255.998,30z"/>
<path style="fill:#FFD237;" d="M210.998,75c0,24.853,20.147,45,45,45V30C231.145,30,210.998,50.147,210.998,75z"/>
<path style="fill:#007CAA;" d="M285.998,270h95.163c4.078-19.415,6.946-39.482,8.492-60H285.998V270z"/>
<path style="fill:#009AD2;" d="M226.002,270v-60H122.347c1.546,20.518,4.414,40.585,8.492,60H226.002z"/>
<path style="fill:#007CAA;" d="M285.998,330v122.647c33.111-31.241,59.766-73.591,77.938-122.647H285.998z"/>
<path style="fill:#009AD2;" d="M226.002,330h-77.938c18.172,49.055,44.827,91.406,77.938,122.647V330z"/>
<g>
</g>
<g>
</g>
<g>
</g>
<g>
</g>
<g>
</g>
<g>
</g>
<g>
</g>
<g>
</g>
<g>
</g>
<g>
</g>
<g>
</g>
<g>
</g>
<g>
</g>
<g>
</g>
<g>
</g>
</svg>
