<?xml version="1.0" encoding="iso-8859-1"?>
<!-- Generator: Adobe Illustrator 19.0.0, SVG Export Plug-In . SVG Version: 6.00 Build 0)  -->
<svg version="1.1" id="Capa_1" xmlns="http://www.w3.org/2000/svg" xmlns:xlink="http://www.w3.org/1999/xlink" x="0px" y="0px"
	 viewBox="0 0 512 512" style="enable-background:new 0 0 512 512;" xml:space="preserve">
<path style="fill:#FF9037;" d="M423.472,176.468c-53.76-17.561-110.105-26.465-167.469-26.465c-0.003,0-50.003,181-50.003,181
	L256,512l7.79-4.731c45.339-27.556,85.034-71.166,114.793-126.115c29.922-55.249,49-120.632,55.171-189.08l1.073-11.897
	L423.472,176.468z"/>
<path style="fill:#FFB037;" d="M88.528,176.469l-11.354,3.709l1.073,11.896c6.171,68.448,25.249,133.831,55.171,189.079
	c29.759,54.949,69.454,98.559,114.792,126.115L256,512V150.002C198.634,150.003,142.289,158.907,88.528,176.469z"/>
<path style="fill:#FF9037;" d="M361,60c0-24.813-20.187-45-45-45c-8.022,0-15.553,2.12-22.082,5.814C285.915,8.311,271.914,0,256,0
	l-10,15l10,15c8.271,0,15,6.729,15,15v45h-15l-10,15l10,15h105V60z M331,90h-30V60c0-8.271,6.729-15,15-15s15,6.729,15,15V90z"/>
<g>
	<path style="fill:#FFB037;" d="M241,90V45c0-8.271,6.729-15,15-15V0c-15.914,0-29.915,8.311-37.918,20.814
		C211.553,17.12,204.022,15,196,15c-24.813,0-45,20.187-45,45v60h105V90H241z M211,90h-30V60c0-8.271,6.729-15,15-15s15,6.729,15,15
		V90z"/>
	<path style="fill:#FFB037;" d="M107.036,395.441C75.188,336.637,54.9,267.246,48.365,194.77l-4.29-47.586l-29.879,2.693
		l3.087,34.238H0v30h20.233c1.194,10.071,2.642,20.077,4.337,30H0v30h30.5c2.28,10.118,4.826,20.123,7.624,30H14.458v30h33.088
		c3.522,10.181,7.33,20.187,11.408,30H35.929v30h36.653c2.61,5.273,5.296,10.484,8.074,15.612c2.638,4.871,5.346,9.667,8.122,14.388
		H66.021v30h42.051c14.831,21.153,31.172,40.447,48.89,57.646l20.896-21.526C150.6,463.777,126.772,431.883,107.036,395.441z"/>
	<path style="fill:#FFB037;" d="M512,214.116v-30h-17.287l3.087-34.238l-29.879-2.693l-4.29,47.585
		c-6.535,72.476-26.823,141.867-58.67,200.671c-19.737,36.442-43.564,68.336-70.822,94.794l20.896,21.526
		c17.718-17.199,34.059-36.493,48.89-57.646h42.051v-30h-22.757c2.776-4.721,5.484-9.517,8.122-14.388
		c2.778-5.129,5.464-10.339,8.074-15.612h36.653v-30h-23.025c4.078-9.813,7.885-19.819,11.408-30h33.088v-30h-23.666
		c2.798-9.877,5.344-19.882,7.624-30h30.5v-30h-24.57c1.695-9.923,3.143-19.929,4.337-30H512V214.116z"/>
</g>
<path style="fill:#012231;" d="M207.117,182.32c-33.261,3.152-65.97,9.514-97.766,19.061
	c10.603,92.895,46.17,176.095,97.766,232.865l30-125.963L207.117,182.32z"/>
<path style="fill:#FF0021;" d="M304.883,434.245c51.597-56.771,87.164-139.971,97.766-232.867
	c-31.796-9.546-64.506-15.908-97.766-19.059l-30,125.963L304.883,434.245z"/>
<path style="fill:#FFD237;" d="M256.003,180.002C256,180.002,236,328.34,236,328.34l20,148.338
	c17.507-11.629,33.871-25.916,48.883-42.433V182.32C288.706,180.787,272.401,180.002,256.003,180.002z"/>
<path style="fill:#FFE17A;" d="M207.117,182.32v251.925c15.012,16.517,31.376,30.804,48.883,42.433V180.002
	C239.601,180.002,223.295,180.787,207.117,182.32z"/>
<g>
</g>
<g>
</g>
<g>
</g>
<g>
</g>
<g>
</g>
<g>
</g>
<g>
</g>
<g>
</g>
<g>
</g>
<g>
</g>
<g>
</g>
<g>
</g>
<g>
</g>
<g>
</g>
<g>
</g>
</svg>
