<?xml version="1.0" encoding="iso-8859-1"?>
<!-- Generator: Adobe Illustrator 19.0.0, SVG Export Plug-In . SVG Version: 6.00 Build 0)  -->
<svg version="1.1" id="Capa_1" xmlns="http://www.w3.org/2000/svg" xmlns:xlink="http://www.w3.org/1999/xlink" x="0px" y="0px"
	 viewBox="0 0 512 512" style="enable-background:new 0 0 512 512;" xml:space="preserve">
<path style="fill:#FF9037;" d="M256,0l-60,256l60,256c141.385,0,256-114.615,256-256S397.385,0,256,0z"/>
<path style="fill:#FFB037;" d="M0,256c0,141.385,114.615,256,256,256V0C114.615,0,0,114.615,0,256z"/>
<path style="fill:#FF0021;" d="M415.806,415.806C456.704,374.908,482,318.408,482,256L256,90l-60,325.806H415.806z"/>
<path style="fill:#EFF6F9;" d="M482,256c0-124.816-101.184-226-226-226l-60,226H482z"/>
<path style="fill:#015E82;" d="M256,256l-60,113l60,113c62.408,0,118.908-25.296,159.806-66.194L256,256z"/>
<path style="fill:#FFD237;" d="M30,256c0,124.816,101.184,226,226,226V256l-113-60L30,256z"/>
<path style="fill:#FFFFFF;" d="M30,256h226V30C131.184,30,30,131.184,30,256z"/>
<path style="fill:#EFF6F9;" d="M256,60l-45.938,196L256,452c108.248,0,196-87.752,196-196S364.248,60,256,60z"/>
<path style="fill:#FFFFFF;" d="M60,256c0,108.248,87.752,196,196,196V60C147.752,60,60,147.752,60,256z"/>
<g>
	<path style="fill:#D5011D;" d="M294.025,178.952l21.271-29.278l-15.519-53.828C285.829,92.042,271.154,90,256,90l-20,44.476
		l20,44.476H294.025z"/>
	<path style="fill:#D5011D;" d="M369.915,135.266c-10.429-9.843-22.128-18.356-34.833-25.253l7.44,25.807L369.915,135.266z"/>
	<path style="fill:#D5011D;" d="M397.036,301.149l9.009,25.931c6.093-12.838,10.587-26.58,13.224-40.974L397.036,301.149z"/>
	<path style="fill:#D5011D;" d="M375.136,279.746l46.675-31.58c-1.428-30.721-11.208-59.255-27.119-83.395l-54.076,1.093
		l-22.321,30.721l23.513,72.333L375.136,279.746z"/>
	<path style="fill:#D5011D;" d="M367.995,308.969l-35.457-11.521L271,342.145v35.096l43.722,34.06
		c28.049-10.612,52.469-28.6,70.896-51.603L367.995,308.969z"/>
	<path style="fill:#D5011D;" d="M256.643,404.085L256,404.572l-5,8.471l5,8.958c7.393,0,14.671-0.49,21.808-1.427L256.643,404.085z"
		/>
	<polygon style="fill:#D5011D;" points="290.771,208.952 256,208.952 236,262.457 256,315.962 312.27,275.091 	"/>
</g>
<g>
	<path style="fill:#FF0021;" d="M196.078,148.812l21.897,30.14H256V90c-15.198,0-29.914,2.054-43.898,5.879L196.078,148.812z"/>
	<path style="fill:#FF0021;" d="M170.191,268.916l23.513-72.332l-21.706-29.875l-54.76-1.833
		c-15.892,24.151-25.651,52.693-27.055,83.418l45.659,31.784L170.191,268.916z"/>
	<polygon style="fill:#FF0021;" points="199.73,275.091 256,315.962 256,208.952 221.229,208.952 	"/>
	<path style="fill:#FF0021;" d="M106.21,327.627l9.151-25.255l-22.517-15.675C95.533,301.079,100.07,314.809,106.21,327.627z"/>
	<path style="fill:#FF0021;" d="M234.779,420.655C241.728,421.542,248.81,422,256,422v-17.428L234.779,420.655z"/>
	<path style="fill:#FF0021;" d="M168.438,136.574l7.952-26.268c-12.678,6.943-24.353,15.489-34.747,25.371L168.438,136.574z"/>
	<path style="fill:#FF0021;" d="M241,378.299v-36.154l-61.538-44.697l-34.465,11.199l-18.535,51.15
		c18.444,22.988,42.875,40.958,70.934,51.549L241,378.299z"/>
</g>
<g>
</g>
<g>
</g>
<g>
</g>
<g>
</g>
<g>
</g>
<g>
</g>
<g>
</g>
<g>
</g>
<g>
</g>
<g>
</g>
<g>
</g>
<g>
</g>
<g>
</g>
<g>
</g>
<g>
</g>
</svg>
