<?xml version="1.0" encoding="iso-8859-1"?>
<!-- Generator: Adobe Illustrator 19.0.0, SVG Export Plug-In . SVG Version: 6.00 Build 0)  -->
<svg version="1.1" id="Capa_1" xmlns="http://www.w3.org/2000/svg" xmlns:xlink="http://www.w3.org/1999/xlink" x="0px" y="0px"
	 viewBox="0 0 512 512" style="enable-background:new 0 0 512 512;" xml:space="preserve">
<g>
	<polygon style="fill:#FFB037;" points="354.162,16.829 331,24.354 331,0 301,0 301,24.354 277.838,16.829 268.567,45.36 
		291.73,52.886 277.415,72.589 301.685,90.223 316,70.52 330.315,90.223 354.585,72.589 340.27,52.886 363.433,45.36 	"/>
	<polygon style="fill:#FFB037;" points="483.433,45.36 474.162,16.829 451,24.354 451,0 421,0 421,24.354 397.838,16.829 
		388.567,45.36 411.73,52.886 397.415,72.589 421.685,90.223 436,70.52 450.315,90.223 474.585,72.589 460.27,52.886 	"/>
</g>
<g>
	<polygon style="fill:#FFD237;" points="114.162,16.829 91,24.354 91,0 61,0 61,24.354 37.838,16.829 28.567,45.36 51.73,52.886 
		37.415,72.589 61.685,90.223 76,70.52 90.315,90.223 114.585,72.589 100.27,52.886 123.433,45.36 	"/>
	<polygon style="fill:#FFD237;" points="234.162,16.829 211,24.354 211,0 181,0 181,24.354 157.838,16.829 148.567,45.36 
		171.73,52.886 157.415,72.589 181.685,90.223 196,70.52 210.315,90.223 234.585,72.589 220.27,52.886 243.433,45.36 	"/>
</g>
<path d="M331,218h-30v30h-30v-60h-15l-10,76l10,136h15v-90h30v60h30v-60h30v60h30v-92C391,244.916,364.084,218,331,218z"/>
<path style="fill:#012231;" d="M241,188v60h-30v-30h-30c-33.084,0-60,26.916-60,60v92h30v-60h30v60h30v-60h30v90h15V188H241z"/>
<path style="fill:#FFB037;" d="M347.67,489.921l-13.7-26.689c31.645-16.243,58.019-42.617,74.262-74.262l26.689,13.7
	C415.836,439.85,384.85,470.836,347.67,489.921z"/>
<path style="fill:#012231;" d="M164.331,489.921c-37.18-19.084-68.167-50.07-87.251-87.251l26.689-13.7
	c16.244,31.646,42.617,58.019,74.261,74.262L164.331,489.921z"/>
<path d="M256,110l-20,15l20,15c94.29,0,171,76.71,171,171c0,17.911-2.766,35.575-8.221,52.502l28.554,9.202
	C453.748,352.8,457,332.04,457,311C457,200.168,366.832,110,256,110z"/>
<path style="fill:#012231;" d="M55,311c0,21.04,3.252,41.8,9.667,61.704l28.554-9.202C87.766,346.575,85,328.911,85,311
	c0-94.29,76.71-171,171-171v-30C145.168,110,55,200.168,55,311z"/>
<path style="fill:#D5011D;" d="M308.502,473.779C291.575,479.234,273.911,482,256,482l-20,15l20,15c21.04,0,41.8-3.252,61.704-9.667
	L308.502,473.779z"/>
<path style="fill:#FF0021;" d="M203.498,473.779l-9.202,28.554C214.2,508.748,234.96,512,256,512v-30
	C238.089,482,220.425,479.234,203.498,473.779z"/>
<g>
</g>
<g>
</g>
<g>
</g>
<g>
</g>
<g>
</g>
<g>
</g>
<g>
</g>
<g>
</g>
<g>
</g>
<g>
</g>
<g>
</g>
<g>
</g>
<g>
</g>
<g>
</g>
<g>
</g>
</svg>
