<?xml version="1.0" encoding="iso-8859-1"?>
<!-- Generator: Adobe Illustrator 19.0.0, SVG Export Plug-In . SVG Version: 6.00 Build 0)  -->
<svg version="1.1" id="Capa_1" xmlns="http://www.w3.org/2000/svg" xmlns:xlink="http://www.w3.org/1999/xlink" x="0px" y="0px"
	 viewBox="0 0 512 512" style="enable-background:new 0 0 512 512;" xml:space="preserve">
<path style="fill:#FF9037;" d="M255.999,0l-60,256l60,256l5.5-2.168c124.229-48.959,204.499-160.417,204.499-283.954L466,0H255.999z
	"/>
<path style="fill:#FFB037;" d="M46,0v225.878c0,123.537,80.271,234.995,204.499,283.954l5.5,2.168V0H46z"/>
<path style="fill:#EFF6F9;" d="M255.999,30l-60,226l60,223.696C365.55,434.22,435.998,335.19,435.998,225.878L436,30H255.999z"/>
<path style="fill:#FFFFFF;" d="M76,30v195.878c0,109.313,70.448,208.342,179.999,253.818V30H76z"/>
<g>
	<rect x="271" y="60" style="fill:#FF9037;" width="30" height="30"/>
	<rect x="331" y="60" style="fill:#FF9037;" width="30" height="30"/>
</g>
<g>
	<rect x="151" y="60" style="fill:#FFB037;" width="30" height="30"/>
	<rect x="211" y="60" style="fill:#FFB037;" width="30" height="30"/>
</g>
<polygon style="fill:#FF9037;" points="255.999,133.229 235.999,270 255.999,406.771 300.999,429.271 300.999,110.729 "/>
<g>
	<polygon style="fill:#FFB037;" points="210.999,110.729 210.999,429.271 255.999,406.771 255.999,133.229 	"/>
	<rect x="151" y="146" style="fill:#FFB037;" width="30" height="210"/>
</g>
<rect x="331" y="150" style="fill:#FF9037;" width="30" height="206"/>
<polygon style="fill:#D5011D;" points="270.999,176 255.999,176 245.999,191 255.999,206 270.999,206 "/>
<rect x="241" y="176" style="fill:#FF0021;" width="15" height="30"/>
<polygon style="fill:#014059;" points="390.999,236 255.999,236 215.999,281 255.999,326 390.999,326 390.999,296 370.999,281 
	390.999,266 "/>
<rect x="226" y="266" style="fill:#AAE8FD;" width="165" height="30"/>
<polygon style="fill:#015E82;" points="255.999,236 120.999,236 120.999,266 140.999,281 120.999,296 120.999,326 255.999,326 
	255.999,296 235.999,281 255.999,266 "/>
<rect x="121" y="266" style="fill:#EFF6F9;" width="135" height="30"/>
<path style="fill:#5CD4FF;" d="M255.999,266l-29.996,45l29.996,45c24.853,0,45-20.147,45-45S280.852,266,255.999,266z"/>
<path style="fill:#AAE8FD;" d="M210.999,311c0,24.853,20.147,45,45,45v-90C231.146,266,210.999,286.147,210.999,311z"/>
<g>
</g>
<g>
</g>
<g>
</g>
<g>
</g>
<g>
</g>
<g>
</g>
<g>
</g>
<g>
</g>
<g>
</g>
<g>
</g>
<g>
</g>
<g>
</g>
<g>
</g>
<g>
</g>
<g>
</g>
</svg>
